
<svg version="1.0" xmlns="http://www.w3.org/2000/svg"
 width="512.000000pt" height="512.000000pt" viewBox="0 0 512.000000 512.000000"
 preserveAspectRatio="xMidYMid meet">
<g transform="translate(0.000000,512.000000) scale(0.100000,-0.100000)"
fill="#000000" stroke="none">
<path d="M2046 5093 c-3 -16 -10 -57 -16 -93 -61 -369 -187 -640 -403 -867
-157 -164 -305 -251 -622 -364 l-40 -15 -3 -367 -2 -367 340 0 340 0 0 -912
c0 -945 6 -1135 41 -1293 81 -373 445 -671 961 -786 117 -26 468 -37 628 -20
257 28 490 87 740 188 l145 58 3 394 2 393 -52 -32 c-89 -53 -230 -118 -292
-134 -154 -40 -396 -46 -521 -12 -208 56 -360 190 -395 348 -8 37 -13 300 -17
861 l-6 807 641 0 642 0 0 480 0 480 -640 0 -640 0 0 640 0 640 -414 0 -414 0
-6 -27z"/>
</g>
</svg>
